<?xml version="1.0" encoding="utf-8"?>
<!-- Generator: Adobe Illustrator 25.0.1, SVG Export Plug-In . SVG Version: 6.00 Build 0)  -->
<svg version="1.0" id="Layer_1" xmlns="http://www.w3.org/2000/svg" xmlns:xlink="http://www.w3.org/1999/xlink" x="0px" y="0px"
	 viewBox="0 0 866 554.7" style="enable-background:new 0 0 866 554.7;" xml:space="preserve">
<style type="text/css">
	.st0{fill:none;}
</style>
<path d="M151.6,169.6c13.6-3.5,29,3.5,35.2,16.1c6.1,12.1,3.9,26.7-5.5,36.4c-19.3,19.3-38.5,38.6-57.8,57.9
	c-3.9,4.3-5.1,10.4-3,15.9c1,3.3,3.9,5.4,6.1,7.9c0.8,1.1,0.8,3.4-0.8,3.6c-19,2.8-38.9-8-47.4-25.1c-9-17.1-5.9-39.6,7.6-53.6
	c17-17,34-34,51-51C140.9,173.8,146,171,151.6,169.6 M558.6,188.5c8.4-2.6,18.2,3.1,20,11.7c2.4,8.8-4.3,18.3-13.3,19.5
	c-8.7,1.6-17.7-5.4-18.1-14.2C546.3,197.8,551.1,190.6,558.6,188.5 M501.8,192.2h26.5c0,46.2,0,92.4,0,138.6c-8.9,0-17.7,0-26.6,0
	C501.8,284.5,501.8,238.3,501.8,192.2 M302.2,234c18.8-10.7,45.3-6.5,58.8,10.9c-5.2,5.2-10.6,10.2-15.6,15.5
	c-4.2-5-9.8-9.4-16.4-10.4c-4.8-0.6-10.2-0.4-14.3,2.4c-2.9,1.8-4.1,6.2-1.7,9c2.9,2.9,7.1,3.9,10.9,5.1c11.5,3.4,24,5.9,33.3,13.9
	c10,8.7,10.5,24.7,4.3,35.7c-6.9,12-21.3,17.5-34.7,17.6c-16.8,0.4-34.6-6.7-44-21.2c5.2-5.2,10.4-10.4,15.7-15.6
	c5.9,9.3,16.1,15,27.1,15.1c4.8,0,10.2-0.9,13.7-4.5c3-3.1,2.5-8.9-1.4-11c-7.6-4.4-16.6-5.3-24.8-8.4s-16.6-6.9-21.5-14.4
	c-3.9-5.8-4.4-13-3.5-19.7C289.5,245.4,294.7,238.2,302.2,234 M405,240.9c9.9-9.6,23.6-14.1,37.2-12.3c11.1,1.3,21.3,6.5,28.8,14.7
	c19.9,21.8,18.5,60-4.1,79.4c-17.1,15.1-45.8,14.8-61.9-1.7c0,17.4,0,34.8,0,52.1h-26c0-47.3,0-94.7,0-142h26
	C405,234.3,405,237.6,405,240.9 M426.1,252.7c-5.1,1.1-9.7,3.8-13.3,7.5c-11,11.5-10.5,32.2,1.5,42.9c10.1,9.4,27.7,9,37.1-1.2
	c10.2-10.9,10.4-29.5,0.9-41C446,253.4,435.4,250.5,426.1,252.7 M602.2,249.6c7.6-11,19.3-18.5,32.5-20.7
	c12.7-2.1,26.4-0.4,37.5,6.3c5.9,3.5,10.8,8.5,15.2,13.8c-5.4,5.4-10.7,10.7-16.1,16.1c-4.1-4.9-9.1-9.4-15.4-11.3
	c-9.8-3.1-21.5-1.4-29,6c-11.3,11.4-11,32.3,1,43.1c7.3,6.5,18,7.9,27.2,5.4c6.6-1.7,12-6.2,16.2-11.4c5.4,5.4,10.9,10.6,16.1,16.2
	c-6.5,7.6-14.4,14.4-24.1,17.5c-14.1,4.6-30.2,4-43.5-2.9c-12.2-6.2-21.2-17.9-24.8-31.1C590.9,281,593,263.2,602.2,249.6
	 M725.2,232c14.7-5.7,32.2-4.8,45.7,3.6c11.5,7,19.2,19.6,21.3,32.8c1.1,6.7,0.5,13.5,0.7,20.2c-24.9,0-49.8,0-74.7,0
	c1.5,6.6,4.7,12.9,10.1,17.1c8.4,6.8,20.5,7.1,30.2,3.2c6.1-2.5,10.5-7.4,14.9-12.1c5.1,5.2,10.4,10.2,15.8,15.2
	c-6.1,7.8-13.9,14.5-23.3,18c-9.7,3.5-20.1,4.4-30.2,2.9c-14.1-2.2-26.5-10.6-34-22.8c-8.8-14.7-10.2-33.3-4.4-49.4
	C702.1,247.6,712.2,237.1,725.2,232 M730.9,254.1c-5.7,3.3-9.6,8.9-11.8,15c16.7,0.1,33.4,0.1,50.1,0c-0.9-5.8-4.1-10.9-8.8-14.4
	C751.8,248.7,739.7,248.7,730.9,254.1 M549.8,231.1h26.3c0,33.2,0,66.4,0,99.6c-8.8,0-17.5,0-26.3,0
	C549.8,297.5,549.8,264.3,549.8,231.1 M174.8,242.2c21-3.9,43.3,10,50.2,30c6,16.2,2.4,35.7-9.7,48.2
	c-19.3,19.3-38.6,38.6-57.9,57.9c-11.6,10.7-31.4,10.2-42.5-1c-10.3-9.5-12.6-26.4-5.3-38.4c2.3-4.2,6-7.3,9.3-10.7
	c19.4-19.5,39-38.9,58.3-58.4c5.8-5.8,5.8-16.3-0.4-21.8C175.6,246.5,172.4,244.2,174.8,242.2L174.8,242.2z"/>
<rect x="33" y="152.7" class="st0" width="800" height="249.3"/>
</svg>
